<?xml version="1.0" standalone="no"?>
<!DOCTYPE svg PUBLIC "-//W3C//DTD SVG 20010904//EN"
 "http://www.w3.org/TR/2001/REC-SVG-20010904/DTD/svg10.dtd">
<svg version="1.0" xmlns="http://www.w3.org/2000/svg"
 width="1080.000000pt" height="1080.000000pt" viewBox="0 0 1080.000000 1080.000000"
 preserveAspectRatio="xMidYMid meet">

<g transform="translate(0.000000,1080.000000) scale(0.100000,-0.100000)"
fill="#000000" stroke="none">
<path d="M1320 7245 c-352 -71 -663 -251 -897 -519 -188 -214 -284 -404 -359
-703 l-36 -148 -7 -370 c-6 -362 2 -570 27 -670 17 -69 60 -229 70 -261 16
-50 94 -203 147 -284 221 -345 556 -600 919 -699 198 -54 279 -61 698 -61 419
0 502 6 668 47 105 26 290 96 365 138 82 46 149 87 184 113 235 175 367 331
491 577 93 186 142 341 165 530 21 171 21 806 0 954 -33 223 -92 391 -221 621
-40 73 -142 198 -244 300 -220 221 -518 376 -835 435 -133 24 -146 25 -578 24
-419 -1 -448 -2 -557 -24z m762 -884 c245 -63 445 -253 526 -499 21 -65 25
-96 26 -202 0 -108 -3 -134 -23 -190 -71 -195 -203 -403 -427 -676 l-94 -114
0 -112 c0 -154 8 -148 -188 -148 -200 0 -192 -6 -192 145 l0 113 -82 98 c-168
203 -311 412 -390 569 -103 203 -104 418 -4 620 100 201 249 326 466 391 101
31 273 33 382 5z"/>
<path d="M1853 6244 c-129 -65 -228 -425 -194 -704 15 -115 40 -224 92 -392
l40 -128 108 0 109 0 30 94 c86 267 116 454 100 645 -16 203 -75 376 -155 453
-46 45 -86 55 -130 32z"/>
<path d="M1570 6163 c-178 -115 -289 -310 -290 -509 0 -136 79 -307 258 -556
47 -67 59 -78 85 -78 35 0 35 3 -11 160 -66 225 -77 290 -77 480 0 216 29 369
97 503 24 47 11 48 -62 0z"/>
<path d="M2157 6183 c3 -10 9 -22 13 -28 17 -23 53 -136 72 -225 29 -130 31
-387 5 -510 -22 -102 -62 -253 -88 -334 -10 -33 -19 -61 -19 -63 0 -1 15 -3
34 -3 35 0 31 -5 151 170 95 138 170 300 188 406 15 86 -10 212 -63 321 -48
96 -145 203 -230 251 -64 37 -72 38 -63 15z"/>
<path d="M1712 4871 c7 -10 30 -37 50 -60 l38 -41 98 0 c109 0 94 -7 181 93
l24 27 -202 0 c-195 0 -202 -1 -189 -19z"/>
<path d="M1834 4636 c-3 -8 -4 -31 -2 -52 l3 -39 65 0 65 0 3 53 3 52 -66 0
c-47 0 -67 -4 -71 -14z"/>
</g>
</svg>
