<?xml version="1.0"?>
<svg width="120" height="42" xmlns="http://www.w3.org/2000/svg" xmlns:svg="http://www.w3.org/2000/svg">
 <defs>
  <clipPath id="clip0_316_21121">
   <rect fill="white" height="21.82" id="svg_1" transform="translate(10.0699 10.0699)" width="21.82"/>
  </clipPath>
 </defs>
 <g class="layer">
  <title>Layer 1</title>
  <rect fill="#3554D1" height="41.96" id="svg_3" rx="18" width="41.96"/>
  <g clip-path="url(#clip0_316_21121)" id="svg_4">
   <path d="m29.23,18.31c0,-4.54 -3.69,-8.24 -8.24,-8.24c-4.54,0 -8.24,3.7 -8.24,8.24c0,1.88 1.33,4.56 3.93,7.95c0.79,1.01 1.56,1.93 2.21,2.67l0,2.31c0,0.36 0.29,0.65 0.65,0.65l2.91,0c0.36,0 0.65,-0.29 0.65,-0.65l0,-2.31c0.65,-0.74 1.42,-1.66 2.2,-2.67c2.61,-3.39 3.93,-6.07 3.93,-7.95zm-1.3,0c0,1.8 -1.67,4.54 -3.51,6.96l-0.82,0c0.99,-2.96 1.49,-5.3 1.49,-6.96c0,-2.12 -0.38,-4.12 -1.07,-5.64c-0.13,-0.28 -0.27,-0.55 -0.42,-0.79c2.54,1.03 4.33,3.52 4.33,6.43zm-6.13,12.28l-1.61,0l0,-1.26l1.61,0l0,1.26zm0.36,-2.55l-2.33,0c-0.38,-0.44 -0.8,-0.93 -1.24,-1.47l0.7,0c0,0 0,0 0,0c0.01,0 4.11,0 4.11,0c-0.43,0.52 -0.85,1.02 -1.24,1.47zm-1.17,-16.67c0.64,0 1.32,0.67 1.85,1.84c0.61,1.35 0.95,3.16 0.95,5.1c0,1.58 -0.54,3.98 -1.56,6.96l-2.47,0c-1.02,-2.98 -1.56,-5.38 -1.56,-6.96c0,-1.94 0.34,-3.75 0.95,-5.1c0.53,-1.17 1.2,-1.84 1.84,-1.84zm-6.94,6.94c0,-2.91 1.8,-5.4 4.34,-6.43c-0.15,0.24 -0.29,0.51 -0.42,0.79c-0.69,1.52 -1.07,3.52 -1.07,5.64c0,1.66 0.5,4 1.49,6.96l-0.82,0c-2.3,-3.02 -3.52,-5.42 -3.52,-6.96z" fill="white" id="svg_5"/>
  </g>
 </g>
</svg>